<svg xmlns="http://www.w3.org/2000/svg" xmlns:xlink="http://www.w3.org/1999/xlink" version="1.1" x="0px" y="0px" viewBox="0 0 100 125" enable-background="new 0 0 100 100" xml:space="preserve" fill="#012D4F">
  <g>
    <path d="M66.21,18.272l-3.498-3.504c13.847,5.025,23.919,17.973,24.686,33.352h8.347L81.728,62.134L67.713,48.12h8.059   c-0.76-10.367-7.592-19.021-16.948-22.453l7.393-7.395H66.21z" />
    <path d="M74.336,58.825c-3.43,9.355-12.088,16.186-22.453,16.943v-8.055L37.867,81.726l14.016,14.016v-8.346   c15.379-0.764,28.321-10.836,33.349-24.689l-3.504,3.506l-7.392-7.393V58.825z" />
    <path d="M41.176,74.339c-9.356-3.432-16.189-12.086-16.944-22.455h8.056L18.271,37.87L4.256,51.884h8.346   c0.771,15.379,10.845,28.324,24.689,33.35l-3.502-3.502l7.393-7.393H41.176z" />
    <path d="M25.664,41.179c3.436-9.357,12.088-16.191,22.453-16.945v8.055l14.014-14.016L48.117,4.261v8.346   c-15.379,0.77-28.322,10.844-33.35,24.689l3.504-3.502l7.393,7.389V41.179z" />
  </g>
</svg>
