<svg xmlns="http://www.w3.org/2000/svg" xmlns:xlink="http://www.w3.org/1999/xlink" version="1.1" x="0px" y="0px" viewBox="0 0 100 125" enable-background="new 0 0 100 100" xml:space="preserve" fill="#012D4F">
  <g>
    <path d="M27.946,53.7c-0.588-0.588-1.54-0.588-2.126,0l-7.749,7.748L10.323,53.7c-0.586-0.588-1.538-0.588-2.126,0   c-0.587,0.588-0.587,1.539,0,2.126l7.748,7.748l-7.748,7.748c-0.587,0.587-0.587,1.539,0,2.127c0.294,0.293,0.679,0.44,1.063,0.44   s0.77-0.147,1.062-0.44l7.748-7.748l7.749,7.748c0.293,0.293,0.678,0.44,1.062,0.44s0.77-0.147,1.063-0.44   c0.588-0.588,0.588-1.54,0-2.127l-7.748-7.748l7.748-7.748C28.534,55.239,28.534,54.288,27.946,53.7z" />
    <path d="M78.402,42.217l7.748-7.748c0.588-0.587,0.588-1.538,0-2.126s-1.539-0.588-2.127,0l-7.748,7.748l-7.748-7.748   c-0.586-0.588-1.537-0.588-2.125,0s-0.588,1.539,0,2.126l7.748,7.748l-7.748,7.748c-0.588,0.587-0.588,1.538,0,2.126   c0.293,0.294,0.678,0.441,1.062,0.441s0.77-0.147,1.062-0.441l7.748-7.748l7.748,7.748c0.295,0.294,0.68,0.441,1.064,0.441   s0.77-0.147,1.062-0.441c0.588-0.588,0.588-1.539,0-2.126L78.402,42.217z" />
    <path d="M21.433,43.181c0.294,0.294,0.679,0.441,1.062,0.441c0.386,0,0.771-0.147,1.064-0.441l7.747-7.748l7.748,7.748   c0.294,0.294,0.678,0.441,1.062,0.441c0.386,0,0.771-0.147,1.063-0.441c0.588-0.587,0.588-1.539,0-2.127l-7.747-7.747l7.747-7.748   c0.588-0.588,0.588-1.539,0-2.127c-0.587-0.587-1.539-0.587-2.126,0l-7.748,7.748l-7.747-7.748c-0.588-0.587-1.54-0.587-2.127,0   c-0.588,0.588-0.588,1.539,0,2.127l7.747,7.748l-7.747,7.747C20.845,41.642,20.845,42.594,21.433,43.181z" />
    <path d="M57.295,49.153c1.996-4.571,3.012-9.579,3.037-14.586c0.016-2.504-0.25-5.008-0.725-7.464   c-0.496-2.453-1.238-4.854-2.207-7.153c-1.809-4.265-4.445-8.155-7.697-11.375l8.367,0.832l0.176-1.798L47.461,6.541l-0.282,10.835   l1.805,0.049l0.229-8.811c2.91,3.599,5.23,7.611,6.802,11.886c0.84,2.25,1.469,4.57,1.887,6.928   c0.439,2.353,0.631,4.747,0.637,7.138c0.01,4.783-0.861,9.562-2.52,14.075c-1.475,3.995-3.598,7.757-6.223,11.197   c-0.736-0.168-1.498-0.264-2.283-0.264c-5.688,0-10.314,4.627-10.314,10.314s4.627,10.315,10.314,10.315   c5.688,0,10.315-4.628,10.315-10.315c0-4.806-3.309-8.842-7.764-9.982C53.1,56.842,55.562,53.162,57.295,49.153z M54.82,69.889   c0,4.028-3.277,7.308-7.307,7.308c-4.028,0-7.308-3.279-7.308-7.308c0-4.029,3.279-7.307,7.308-7.307   C51.543,62.582,54.82,65.859,54.82,69.889z" />
    <path d="M72.061,72.829c-5.688,0-10.314,4.627-10.314,10.314c0,5.688,4.627,10.315,10.314,10.315s10.316-4.627,10.316-10.315   C82.377,77.456,77.748,72.829,72.061,72.829z M72.061,90.451c-4.029,0-7.307-3.277-7.307-7.308c0-4.028,3.277-7.307,7.307-7.307   s7.309,3.278,7.309,7.307C79.369,87.174,76.09,90.451,72.061,90.451z" />
  </g>
</svg>
