<svg xmlns="http://www.w3.org/2000/svg" xmlns:xlink="http://www.w3.org/1999/xlink" version="1.1" x="0px" y="0px" viewBox="0 0 90 112.5" enable-background="new 0 0 90 90" xml:space="preserve" fill="#012D4F">
  <g>
    <path d="M34.021,31.748c2.353,3.559,4.418,7.787,4.746,8.513c0.092,0.214,0.239,0.707,0.402,1.312   c1.148-1.621,2.551-2.963,4.223-3.944c2.389-1.402,5.132-1.981,8.095-1.844c-0.717-1.135-1.367-2.304-1.682-3.213   c-0.804-2.335-3.715-11.97-5.42-16.083c-1.703-4.114-8.189-1.187-11.96,0.956c-3.768,2.145-3.979,4.784-3.598,5.511   C29.213,23.684,31.665,28.188,34.021,31.748z" />
    <path d="M48.473,45.008c5.011-2.068,6.083,0.437,6.083,0.437c1.591-1.469,0.478-3.212,0.478-3.212s0.401-0.747-0.246-1.514   c-0.396-0.467-1.677-2.16-2.798-3.938c-2.963-0.142-5.706,0.437-8.095,1.84c-1.672,0.98-3.072,2.322-4.218,3.943   c0.407,1.499,0.93,3.689,1.067,4.07c0.193,0.534,0.686,1.261,1.148,1.357c0.458,0.096,0.727,0.533,0.727,0.533   c0.595,1.204,2.45,1.28,2.45,1.28S43.457,47.071,48.473,45.008z" />
    <path d="M85.877,55.634c-1.534-1.199-3.59-1.778-5.229-2.841c-4.235-2.749,1.253-5.28,3.067-6.916   c3.085-2.78,3.893-5.981,2.617-9.874c-0.401-1.213-1.266-2.499-0.864-1.284c2.181,6.65-4.756,9.832-8.278,13.552   c-1.296,1.367-1.117,2.855,0.229,4.223c2.606,2.643,10.453,4.873,5.59,8.989c-3.41,2.877-8.7,3.136-12.476,5.57   c-0.514,0.33-0.569,1.214-0.057,1.575c3.71,2.592,8.848,1.967,12.504,4.324c-6.309,1.896-12.923,0.661-19.41,0.066   c0.025-0.184,0.006-0.341,0.006-0.341c-0.823-5.051-0.91-6.148-0.529-8.675c0.387-2.525,0-2.754,0-2.754   c-3.902-5.361-8.644-15.479-8.644-15.479c-0.63-1.047-3.138-1.494-6.235-0.112c-3.217,1.433-2.988,3.404-2.988,3.404l5.453,16.079   c0.193,0.519,1.074,0.763,1.074,0.763c5.11,1.474,9.274,6.637,9.831,7.439c0.554,0.808,0.955,0.498,0.955,0.498l-5.961-13.345   c-0.452-0.102-0.914-0.498-1.188-1.088c-0.396-0.849-0.239-1.758,0.351-2.032c0.589-0.274,1.387,0.192,1.781,1.041   c0.297,0.641,0.281,1.312,0.002,1.729l5.682,12.831c-0.041,0-0.081-0.005-0.122-0.01c-1.271-0.107,0.062,1.509,3.623,1.956   c7.938,0.996,11.043,0.936,18.69-0.686c0.785-0.163,0.798-1.169,0.285-1.692c-3.39-3.461-8.35-2.719-12.41-4.609   C78.392,65.762,92.567,60.862,85.877,55.634z" />
  </g>
  <g>
    <path d="M26.362,47.882l-4.98,2.814c0.391,2.847,1.824,6.759,4.096,10.779c2.368,4.187,5.412,8.069,7.707,9.822l4.744-2.683   c-0.32-2.871-2.073-7.48-4.444-11.668C31.21,52.928,28.598,49.686,26.362,47.882z" />
    <polygon points="34.549,72.36 39.176,76.689 37.873,70.435  " />
    <path d="M2.657,16.708l2.041,3.605l3.96-2.244l-2.039-3.605c-0.619-1.092-2.005-1.476-3.1-0.861   C2.426,14.218,2.04,15.612,2.657,16.708z" />
    <path d="M4.797,21.238l15.935,28.183l4.833-2.737l-5.463-9.666c0.64,0.244,1.53-0.239,1.266-1.083   c-1.977-6.366-4.84-12.553-8.685-18.016c-0.693-0.983-2.34-0.063-1.641,0.928c0.015,0.025,0.03,0.043,0.045,0.066l-0.93,0.526   l-0.526-0.938L4.797,21.238z M19.243,35.504l-7.038-12.447l1.138-0.64C15.803,26.533,17.759,30.954,19.243,35.504z" />
  </g>
</svg>
